<?xml version="1.0" encoding="utf-8"?>
<!-- Generator: Adobe Illustrator 22.0.0, SVG Export Plug-In . SVG Version: 6.00 Build 0)  -->
<svg version="1.1" xmlns="http://www.w3.org/2000/svg" xmlns:xlink="http://www.w3.org/1999/xlink" x="0px" y="0px"
	 viewBox="0 0 500 500" style="enable-background:new 0 0 500 500;" xml:space="preserve">
<style type="text/css">
	.st0{fill:#C1272D;}
	.st1{fill:#2D363D;}
</style>
<g id="BACKGROUND">
</g>
<g id="OBJECTS">
	<g>
		<g>
			<g>
				<path class="st0" d="M241,417.5c-96.8,0-175.5-78.7-175.5-175.5c0-96.8,78.7-175.5,175.5-175.5c96.8,0,175.5,78.7,175.5,175.5
					C416.6,338.8,337.8,417.5,241,417.5z M241,105.5c-75.3,0-136.5,61.2-136.5,136.5S165.8,378.5,241,378.5S377.6,317.3,377.6,242
					S316.3,105.5,241,105.5z"/>
			</g>
		</g>
		<g>
			<path class="st1" d="M473.5,349.1c-5.4-2.4-10.8-4.7-16.2-7.1c-2.3-1-4.6-2.2-7-2.9c-6.8-2-12.8-5.6-18.9-8.9
				c-2.2-1.2-4.5-2.4-6.7-3.5c-2.8-1.5-6.1-2.4-8.4-4.5c-1.9-1.7-3.9-2.9-6-3.5l-5.8-5.5l-89.2-42.5c-4.1-1.1-8.1-1.8-12.1-1.1
				c-0.4,0.1-1.3-0.6-1.5-1.1c-2.6-6.2-5.8-12.1-10.4-17.1c-0.6-0.6-1.7-1.2-2.5-1.1c-2.6,0.4-5.3,0.8-7.6,1.9
				c-8.4,4-16.6,8.3-24.9,12.4c-3.1,1.6-6.3,3.1-9.4,4.6c-3.6,1.7-7.3,3.3-10.8,5.1c-0.6,0.3-1.1,0.6-1.3,1l-4.2,2.2
				c-0.9,0.4-1.8,0.8-2.8,1.2c0,0.1,0.1,0.1,0.1,0.2l-1.9,1l-6.2-10.3l6.4-12.1l3.3-8.4c0.9-1.8,1.7-3.7,2.2-5.6l0.9-2.3
				c2.2-0.2,4.4-0.6,6.5-1.1c9.2-2.2,18-5.9,26-10.8c1-0.3,2-0.6,3-1c0.4,0.5,1,0.7,1.4,0.6c3.4-0.4,6.8-0.8,10.1-1.4
				c3.1-0.6,6.3-1.4,9.3-2.3c2.1-0.6,4-1.8,6.1-2.5c2.1-0.7,4.2-1.3,6.4-1.8c0.5-0.1,1.1-0.3,1.5-0.1c2.3,0.9,4.5,1.8,6.7,2.9
				c9.4,4.8,18.7,9.6,28.1,14.4c1.4,0.7,3.1,1.1,4.7,1.2c4.7,0.3,9.4,0.2,14.1,0.6c7.3,0.7,14.6,1.9,21.9,2.4
				c9.9,0.7,19.9,1,29.9,1.5c1.8,0.1,3.7,0.4,5.5-1.2c-0.7-0.2-1.1-0.4-1.5-0.4c-9.2-0.4-18.4-0.6-27.6-1.4c-8-0.7-16-2-24.1-3.1
				c-2.3-0.3-4.8-0.5-6.9-1.4c-2.3-1-4.5-1.2-6.9-1.3c-1,0-2.3,0-2.9-0.6c-2.7-2.9-6.5-3.5-10-4.7c-5.4-1.9-10.8-3.7-16.1-5.8
				c-3.9-1.5-7.6-3.5-11.3-5.3c-0.3-0.2-0.6-0.3-0.9-0.5c1.4,0.1,3.2,0,4.8-0.6c0,0,0,0,0,0c1.2-0.2,2.1-0.6,2.8-1.4
				c2.8-1.7,6.4-4.3,8.7-6c0.8-0.3,1.6-0.6,2.4-0.9c1.7-0.6,3.6-0.6,5.7-0.9l7.1-0.3c0.3,0.1,0.6,0.2,0.9,0.3
				c1.1,0.3,2.2,0.8,3.2,1.2c2.1,0.8,4.1-0.3,4.4-2.4c0.1-0.7,0.3-1.4,0.6-2c1.1-2.5,2.1-5,1.3-7.7c-0.3-1.1-1.9-1.8-2.7-2.7
				c-2.5-3-6.3-2.1-8.1,0.6c-0.3,0.4-0.5,0.7-0.8,1l-6-3.1c-0.3-2.4-0.6-2.4-2.9-1c0,0-0.1,0.1-0.1,0.1c-1.6-1-3.5-1.7-5.4-1.9
				c-4.6-0.6-9.2,0.9-13.1,3.3c-2.4,1.5-4.6,3.4-6.6,5.3l-0.6,0.2c-0.1-0.1-0.2-0.1-0.3-0.2c-0.2-0.1-0.5,0-0.8,0
				c-1.3,0-2.7,0.3-3.9,0c-1.9-0.4-3.2,0-4,1.9c-0.2,0.5-1.4,0.7-2.2,0.8c-1.8,0.2-3.4,0.7-3.8,1.8c-5.3,1.9-10.4,3.8-15.1,5.5
				l-8.8-1.6c5.1-4.7,9.1-8.7,10-9.6c2.1-0.1,15.4-1.5,27.3-13.4c11.7-11.8,14.9-15.4,15.4-16c2-1.2,27.1-17.1,25.3-25.5
				c-0.5-2.4-3-4-7.4-4.7c-22.5-3.5-37.7,10-38.5,10.7L261,173.7L216.3,206c-0.3,0.1-0.5,0.3-0.7,0.5l-0.8,0.6
				c-0.4,0-0.9-0.1-1.1-0.2c-0.4,0.2-0.7,0.4-1.1,0.6c1.8-4.9,3.1-8.7,3.5-9.8c1.8-1,13.1-8.2,18.5-24.2c5.3-15.8,6.5-20.4,6.7-21.1
				c1.2-2,16.7-27.3,11.3-34.1c-1.5-2-4.5-2.3-8.7-0.9c-21.7,6.9-29.3,25.7-29.7,26.7l-18.7,37.3l-16.4,31.2
				c-1.3,1.2-2.3,2.8-2.8,4.5c-0.5,1-1,2-1.4,3c-1.9,1.4-3.7,2.9-5.2,4.7c-3.4,3.8-6.5,7.9-9.7,11.8c-2.2,2.7-3.4,5.9-4.4,9
				c-1.1-0.3-1.8-0.5-1.8-0.5c0.2,0,0.7,0,1.8,0c-1-1-1.5-1.9-2.2-2.3c-4.7-2.5-9.4-5.1-14.2-7.4c-0.9-0.4-2.8-0.2-3.5,0.5
				c-3,2.9-6.1,5.9-8.5,9.3c-3,4.1-5.4,8.7-8.1,13.1c-2.6,4.3-5.3,8.5-8,12.7c-4,6.3-7.9,12.6-12.1,18.8
				c-4.8,6.9-9.9,13.7-14.8,20.5c-0.9,1.3-2.1,2.7-2.3,4.2c-0.2,1.5-0.3,2.7-1.7,3.7c-0.7,0.5-1.2,1.3-1.7,2c-2,3-3.7,6.1-5.8,9
				c-4.1,5.6-8.3,11.2-12.8,16.5C55,351.4,50,356.7,45,362c-2.5,2.7-5.1,5.4-7.6,8.1c0.2,0.3,0.4,0.5,0.6,0.8c1-0.6,2.1-1,2.9-1.8
				c3.9-4,7.7-8.1,11.5-12.2c4-4.3,8.2-8.5,12-12.9c4.7-5.6,8.9-11.6,13.7-17.1c2.8-3.2,5.7-6.5,8.8-9.6c2.6-2.6,3.8-6.5,5.7-9.8
				c4-7,7.8-14,12-20.9c3.7-6,7.8-11.7,11.6-17.6c2.8-4.3,5.3-8.7,7.9-13.1c1.9-3.1,4.4-6,5.4-9.3c1.4-4.4,6.1-3.7,8.2-6.5
				c0.1-0.1,0.4,0,0.6,0.1c2.6,1.1,5.2,2,7.6,3.4c2.4,1.4,4.7,3.1,7.3,5l0.9,1.2c0,0.1,0,0.1-0.1,0.2c-1.5-0.7-3.2-1.6-5-2.3
				c-0.8-0.3-1.8-0.8-2.5-0.5c-1.3,0.5-3.1,1-3.1,2.9c0,0.2,0,0.4,0,0.7l-1.1,1.4c-1.1,2.3-0.6,4.6-0.5,6.9
				c0.2,5.4,0.2,10.8,0.1,16.2c-0.1,8.3-0.4,16.5-0.4,24.8l-23,15.3l-1.8,2.6c-0.8,1-1.5,2-2.1,3.1l-0.5,0.8l0.3-0.3
				c-1.6,3.1-2.3,6.6-1.9,10.1c2.1-6,4.3-12.3,8.7-16.8l20.4-13.5c0,0.3,0,0.5,0,0.8c0,3.4-0.1,6.7-0.3,10.1l-13.9,18l-0.1,0.2
				c-2.9,4.2-4.3,9.5-3.9,14.6c2.2-6,4.8-11.9,7.8-17.5l9.9-12.8c-0.5,7.7-1.3,15.3-2.2,23c-0.3,2.4-1.3,4.7,0,7.1l-32.7,49.8
				l-0.3,1.4l-18.3,22.6l-7.2,14.4c-1.5,2.6-2.9,5.4-3.9,7.7l-0.7,1.3l-0.1,0.6c-0.4,1.2-0.6,2.1-0.5,2.4c0,0,0,0,0,0l-0.2,1.1
				l15.1-25.6l11.2-15.6c1.2-0.5,2-1.5,2.6-2.8l5-5.2c0.4-0.6,0.7-0.9,0.9-1.3c0.1-0.2,0.1-0.3,0.2-0.5l8.1-13.5l0.5-0.8
				c0.6-0.8,1.1-1.7,1.7-2.5c2.7-4,5.7-7.8,8.5-11.8c1.8-2.6,3.4-5.4,5-8.2c0.7-1.2,1.4-2.5,2.1-3.7l5.1-7.7c0.8-0.6,1.7-1.2,2.7-2
				c0-3.6-0.1-7.8,0-12.1c0.1-5.2,0.2-10.4,0.4-15.6c0.1-2.2,0.3-4.4,0.4-6.6l9.9-12.8l7.9-6.2c0.4,0.2,0.8,0.5,1,0.7
				c1.3,1.7,2.4,3.6,3.7,5.5c-0.8,1.1-1.4,2.3-1.8,3.4l-1,1.6l-0.8,4.1l1.2,0.8l2.8-1.8l3.4-6l5,40.6c0.1,1.8,0.2,3.6,0.4,5.5
				c0.3,3.3,1,6.5,1.4,9.8c0.6,4.7,1.4,9.4,2.9,13.8l0.2,1.2l0.5,0.7c0,0.1,0.1,0.2,0.1,0.2c0.2,0.4,0.5,0.8,0.8,1.2
				c0,3.3,6.4,13.4,7.5,15.2c3.2,5.3,7.8,9.6,10.9,14.7c1.6-1.6-6.8-11.8-9.9-17.9c-0.6-1.3-3.5-8.2-5.8-11.4l-4.9-22.4l-3.5-30.1
				c0-0.8,0.1-1.5,0-2.3c-0.2-2.8-0.4-5.7-0.7-8.5l-0.2-3.2l-1-2.9c-0.2-1-0.3-2-0.2-3c0.1-1.4,0-2.8-0.1-4.1l0-0.7l-1.3-6.1
				c0.1-0.6,0.5-1.1,1.2-1.6c2.3-1.5,3.7-3.8,3.8-6.7c0-1,0.3-1.9,0.4-3c0.5,0.2,0.8,0.3,1,0.5c2.6,2.2,5.2,4.5,7.9,6.5
				c3.4,2.5,7,4.8,10.5,7.2c0.7,0.5,1.4,1.2,2.2,1.4c2.6,0.8,7.4-1.2,8.3-3.7c0.6-1.5,1.7-3.4-0.8-4.6c-0.5-0.2-0.7-1.1-1.1-1.6
				c0.2-0.2,0.3-0.4,0.5-0.6c1.5,1,3.1,1.9,4.6,2.9c1.6,1,2,3.3,4.4,3.5c2.9,0.2,5.7,0.4,8.3-1.5c1.2-0.9,3-1.4,4.6-1.6
				c1.4-0.2,2.8,0.3,4.3,0.5l68.5-11.4c0.1,0.1,0.2,0.3,0.2,0.5c2,4.2,4,8.4,5.9,12.6c4,8.4,8,16.7,11.9,25.2
				c2.5,5.5,5.1,11.1,7,16.9c1.5,4.3,3.7,8,6.3,11.7c3.3,4.6,6.5,9.3,9.6,14.1c2.3,3.6,4.3,7.4,6.7,10.9c3.3,4.8,6.9,9.5,10.3,14.2
				c3.3,4.4,6.5,8.8,9.9,13.2c0.5,0.6,1.5,0.9,2.2,1.3c0.1-0.2,0.3-0.4,0.4-0.6c-2.6-3.6-5.3-7.1-7.9-10.7
				c-3.7-5.1-7.4-10.2-10.9-15.4c-3.3-5-6.5-10.2-9.6-15.4c-1.6-2.7-3-5.5-4.4-8.3c-1.1-2.1-2.2-4.3-3.3-6.4c-0.5-0.9-1.4-2-1.2-2.8
				c0.6-2.6-1-4.3-2.1-6.2c-3.6-6.4-7.5-12.6-10.9-19.2c-5.1-10-9.9-20.1-14.7-30.2c-0.9-1.8-1.5-3.8-2.3-5.8l10.7-1.8l83.2,44
				c1,0.7,2.1,1.4,3.1,2c0.5,0.3,1.2,0.4,1.9,0.5l6.8,2.2c1.3,0.6,2.6,1.1,3.9,1.7c2.5,1.1,5.1,2,7.4,3.4
				c7.8,4.7,16.3,8.2,24.6,11.8c8.1,3.4,16.3,6.8,24.5,10.1c1.1,0.4,2.2,0.5,3.4,0.8c0-0.2,0.1-0.4,0.1-0.6
				C474.3,349.4,473.9,349.2,473.5,349.1z M228.8,165.3l-19,15.1l0.9-4.8c8.6-15.6,17.3-31.3,23.3-42.2L228.8,165.3z M325.6,138.6
				l-29.3,20.3l4.2-8.6c6.1-4.7,10.8-8.3,13.2-10.1C317.3,139.2,321.3,138.6,325.6,138.6z M298.2,174.1l-23.7,5l2.9-3.9
				c14.6-10.1,29.4-20.4,39.6-27.5L298.2,174.1z M209.5,172.2l-4.7,2.4c2.5-5.2,5-10.3,7.4-15.1l0,0.2l0.3-0.9
				c2.3-4.8,4.6-9.3,6.6-13.4l0,9.5L209.5,172.2z M286.5,161c4.2-3.2,8.2-6.3,11.8-9.1l-4.2,8.5l-16.3,11.3l-5.3,0.1
				c4.5-3.5,9.1-7,13.4-10.3l-0.1,0.2L286.5,161z M261.2,194.5c-10.9,4.8-22,8.9-32.5,14.6c0.1-0.1,0.1-0.2,0.2-0.4
				c6.9-4.7,26.2-18,46.1-31.8L261.2,194.5z M243.3,221.7c-2.2,1.6-4.2,3-5.9,3.9c-0.6,0.2-1.2,0.5-1.8,0.7
				c-1.5,0.4-3.1,0.7-4.7,0.9c-4.3,0.5-8.8,0-12.6-1.9c0.6-1.3,1.8-2.9,2.5-3.9L243.3,221.7z M244.7,220.6l-10.4-1.3l6.8-5.8
				l14.1-1.8C251.7,214.9,248.1,218,244.7,220.6z M231.8,219l-7.5-0.9c-0.2-0.3-0.4-0.5-0.4-0.8c2.1-1.4,4.9-3.4,7.4-5
				c2-0.9,3.9-1.7,5.9-2.6c2.6-1.1,5.3-2,7.8-3.3c1.8-1,3.7-1.9,5.6-2.7L231.8,219z M240.8,197.4c-2,1.1-4,2.3-6,3.4
				c8.9-6.9,22.8-17.5,36.5-28l5.1,0L240.8,197.4z M268.4,172.6l3.3-5.1l-1.1,0.7l20.4-15.3l-2.8,4.7L268.4,172.6z M264.5,175.5
				l-23.4,17.7l4.1-6l23.9-18L264.5,175.5z M238.8,195l-1.9,1.5c-7,4.6-13.6,10-21,14c-0.2-0.2-0.4-0.3-0.5-0.5
				c0.6-0.6,1.3-1.3,1.9-1.9l2.9-2l23.2-17.5L238.8,195z M187.3,212.5c-0.6,0.5-1.1,1-1.6,1.6c-0.1,0-0.2,0.1-0.2,0.1
				c4.9-10.1,11.8-24.2,18.7-38.2l4.5-2.2L187.3,212.5z M201.4,177.2l0.7-6l-0.6,1.1l11.4-22.8l-0.4,5.5L201.4,177.2z M199.2,181.6
				l-13,26.3l1-7.2l13.4-26.7L199.2,181.6z M184.9,210.5l-2.8,5.6c-0.4,0-0.8,0-1.3-0.3c-0.6,0.5-1.3,0.9-1.9,1.4l7.3-14.5
				L184.9,210.5z M218.8,264.4c-0.3-0.6-1-1.1-1.2-1.7c-0.8-1.8-1.1-3.9-2.2-5.4c-0.7-0.9-0.9-1.7-0.9-2.4c2-3.2,4.6-7.3,6-9.6
				c0.2-0.2,0.3-0.4,0.5-0.5c0.9-0.7,1.8-1.6,2.9-2.1c0,0,0,0,0,0l1.4-0.5c0.6-0.2,1.3-0.3,1.9-0.4l-8.3,22.8
				C218.8,264.5,218.8,264.4,218.8,264.4z M242.9,212.1l12-10.1c3.5-1.4,7.1-2.6,10.8-3.7c1.7-0.5,3.4-0.9,5.4-1.4
				c-1.7,1.7-8.2,8-15.3,14.4L242.9,212.1z M264.4,193.2C264.4,193.1,264.4,193.1,264.4,193.2c-0.1,0-0.2,0-0.3,0.1l9.4-12.7
				l32.3-6.6C297.4,177.8,280.8,185.5,264.4,193.2z M290.3,156l2.7-4.7l2.2-1.7l0.1,0c0.1-0.1,5.2-4.8,14-8L290.3,156z M199.6,212.4
				c-0.1,0-0.1,0-0.2,0.1l0.4-0.4L199.6,212.4z M193.4,214.4c-1.4,0.4-3.1,0.7-4,0.1c-0.1-0.1-0.2-0.1-0.3-0.1
				c5.4-9.7,12.6-22.8,20-36.2l-4.6,22.2C200.8,205.2,196.9,210,193.4,214.4z M209.5,182.1l26-20.3c-5.8,7.2-17.4,21.7-28.8,36
				L209.5,182.1z M220.4,152.5l-0.1-9.6c3.4-6.9,6-12.2,7.3-14.9c2.8-2.4,6.1-4.7,10-6.6L220.4,152.5z M213.6,152.6l0.4-5.4l1.3-2.5
				l0-0.1c0-0.1,2.6-6.7,9-13.4L213.6,152.6z M238.5,281.3c0.4,0,0.8-0.1,1.2-0.1l-1.1,0.2L238.5,281.3z M254.6,271.6
				c5.6-3,11.2-5.9,16.8-8.9c4.5-2.3,9-4.6,13.5-7c2.1-1.1,3.5-0.9,5.2,1c0.4,0.4,0.9,1.1,1.3,1.1c2.5-0.1,3.1,1.8,3.8,3.5
				c1.2,2.8,2.1,5.6,3.2,8.7c-2.6,0.5-4.9,0.9-7.3,1.3c-2.2,0.4-4.4,0.8-6.6,1.2c-6.7,1.1-13.3,2.1-20,3.2c-0.5,0.1-1,0.2-1.5,0.3
				c-7.5,1.4-14.9,2.8-22.4,4.2c-0.2,0-0.3-0.1-0.7-0.5l2.3-1.2l-0.2-0.1c1.3-0.7,2.7-1.3,4-2C248.9,274.7,251.7,273.1,254.6,271.6z
				 M272,196.2l-0.3,0l0,0c-0.7,0-1.4,0-2.1,0.1l23.9-8.8C282.6,195.8,272.1,196.2,272,196.2z M298.7,183.2c-1,1-1.9,1.9-2.9,2.7
				l-33.4,11.3c0.2-0.2,0.4-0.4,0.7-0.6c-4.2,1.6-8,3-11.8,4.3l-0.2,0.1l55.4-25.8C304.5,177.3,301.9,179.9,298.7,183.2z
				 M314.2,167.1L314.2,167.1l-0.2,0.1c0,0-0.9,1.1-4.1,4.5l-9.6,2l11.5-16.4l26.3-10.6C334.2,153.6,320.3,163.3,314.2,167.1z
				 M339,142.8c0.1,0.4,0.1,0.8,0,1.2l-25.8,11.1l6.5-9.3c5.2-3.6,8.8-6.1,10.2-7.1c0.9,0.1,1.8,0.2,2.8,0.3
				C336.5,139.8,338.7,141,339,142.8z M215.1,196.8l-0.2,0.1l-0.1,0.2c0,0.1-1.7,4.9-4,11.3c-0.2,0.1-0.4,0.2-0.7,0.3
				c-2.9,1-5.8,2-8.7,3l1.1-2.5l-0.1,0l28.1-29.7C224.5,191.7,215.2,196.7,215.1,196.8z M233.2,173.2c-0.4,1.3-0.9,2.5-1.4,3.7
				l-32.5,32.7l0.1-0.2c-0.1,0-0.1,0.1-0.2,0.1l37.5-47C235.8,165.4,234.7,168.9,233.2,173.2z M240,151.9L240,151.9l-0.1,0.2
				c0,0-0.3,1.4-1.7,5.8l-7.7,6.1l3-19.8l18.8-21.1C251.9,130.9,243.8,145.8,240,151.9z M244.2,118.7c3.7-1.2,6.2-1,7.3,0.5
				c0.2,0.3,0.4,0.7,0.6,1.1l-18.2,21.4l1.7-11.2c3-5.5,5.2-9.4,6-10.8C242.4,119.3,243.3,119,244.2,118.7z M144.9,286
				c0-4.9,0.3-9.8,0.2-14.7c0-4.2-0.2-8.4-0.3-12.7l0-0.1l0.8-6.5c1-0.1,2.1,0.7,3.1,1.2c0.7,0.4,1.3,1.2,1.9,1.7
				c2.9,2.3,5.8,4.4,8.6,6.8c-2.2,0.2-4.3,1.2-5.8,2.8c-1.3,1.4-2.1,3.1-2.5,5c0,0.1,0,0.2,0,0.3c-0.1,0.4-0.1,0.7-0.1,1.1
				c-0.4,1.5-1.1,3-1.2,4.4c-0.4,0.7-0.6,1.5-0.8,2.4c-0.5,3.5,1.3,7.3,4.4,9c0.3,0.2,0.6,0.3,0.9,0.4c0.3,0.6,0.4,1.2,0,1.9
				l-8.9,8.2l-0.5,0.3C144.9,293.7,144.8,289.9,144.9,286z M144.8,303c0-1.4,0.1-2.8,0.1-4.2l6.6-4.4c1.5-0.8,7.5-5.6,9-6.4
				c0.2,0.1-4.2,4.2-4,4.3l-11.9,15.4C144.7,306.1,144.8,304.5,144.8,303z M216.1,278.1c1.9,1.6,3.5,2.9,5.1,4.2c0,0,0,0,0,0
				l-1.7,0.9c-0.2,0-0.3,0-0.5-0.1C217,282.5,215.9,281,216.1,278.1z"/>
		</g>
		<g>
			
				<rect x="221.5" y="83.7" transform="matrix(0.8866 -0.4626 0.4626 0.8866 -84.6051 138.9679)" class="st0" width="39" height="316.5"/>
		</g>
	</g>
</g>
<g id="DESIGNED_BY_FREEPIK">
</g>
</svg>
